<?xml version="1.0" encoding="UTF-8" standalone="no"?>
<!DOCTYPE svg PUBLIC "-//W3C//DTD SVG 1.1//EN" "http://www.w3.org/Graphics/SVG/1.1/DTD/svg11.dtd">
<svg xmlns="http://www.w3.org/2000/svg" version="1.1" xmlns:xlink="http://www.w3.org/1999/xlink" width="256" height="256" viewBox="0 0 256 256">
  <path fill="#ffffff" fill-rule="nonzero" stroke-width="0.838376" d="M32.00 53L32.50 49L32.50 36.45Q32.50 33.55 30.90 32.13Q29.30 30.70 26.70 30.70Q24.40 30.70 22.78 31.57Q21.15 32.45 20.10 33.55Q19.05 34.65 18.55 35.30L18.55 31.65L23.75 27.40Q24.85 27.10 25.82 27Q26.80 26.90 27.60 26.90Q30.95 26.90 32.95 28.02Q34.95 29.15 35.83 31Q36.70 32.85 36.70 35.05L36.70 49L37.20 53L32.00 53M0 53L0.50 49L0.50 31.50L0 27.50L3.75 27.50L4.70 32.90L4.70 49L5.20 53L0 53M16 53L16.50 49L16.50 36.45Q16.50 33.55 14.95 32.13Q13.40 30.70 10.80 30.70Q8.55 30.70 6.88 31.55Q5.20 32.40 4.15 33.45Q3.10 34.50 2.60 35.10L2.60 31.65L7.80 27.40Q9.15 27.10 10.22 27Q11.30 26.90 12.05 26.90Q15.20 26.90 17.10 28.02Q19 29.15 19.85 31Q20.70 32.85 20.70 35.05L20.70 49L21.20 53L16 53ZM61.00 53L60.25 50.35L60.25 36.75Q60.25 34.75 59.70 33.38Q59.15 32 57.55 31.25Q55.95 30.50 52.80 30.50Q50.95 30.50 49.38 30.85Q47.80 31.20 46.35 32.15L45.55 31.65L45.55 28.05Q47.75 27.35 49.68 27.13Q51.60 26.90 53.25 26.90Q57.60 26.90 60.03 28.05Q62.45 29.20 63.45 31.42Q64.45 33.65 64.45 36.90L64.45 49L64.95 53L61.00 53M52.55 53.60Q50.35 53.60 48.20 52.88Q46.05 52.15 44.63 50.38Q43.20 48.60 43.20 45.50Q43.20 43.10 44.10 41.50Q45.00 39.90 46.53 39Q48.05 38.10 49.95 37.73Q51.85 37.35 53.85 37.35Q55.05 37.35 56.08 37.45Q57.10 37.55 58.10 37.80L60.70 39.65L60.70 41.95Q59.40 41.25 57.93 40.98Q56.45 40.70 54.55 40.70Q51.05 40.70 49.23 41.73Q47.40 42.75 47.40 45.55Q47.40 47.85 48.75 48.98Q50.10 50.10 53.10 50.10Q56.20 50.10 58.03 49.10Q59.85 48.10 60.85 46.70L61.85 48.95L57.05 53Q56.05 53.25 54.90 53.42Q53.75 53.60 52.55 53.60ZM88.25 53L87.50 50.35L87.50 36.75Q87.50 34.75 86.95 33.38Q86.40 32 84.80 31.25Q83.20 30.50 80.05 30.50Q78.20 30.50 76.63 30.85Q75.05 31.20 73.60 32.15L72.80 31.65L72.80 28.05Q75 27.35 76.92 27.13Q78.85 26.90 80.50 26.90Q84.85 26.90 87.28 28.05Q89.70 29.20 90.70 31.42Q91.70 33.65 91.70 36.90L91.70 49L92.20 53L88.25 53M79.80 53.60Q77.60 53.60 75.45 52.88Q73.30 52.15 71.88 50.38Q70.45 48.60 70.45 45.50Q70.45 43.10 71.35 41.50Q72.25 39.90 73.78 39Q75.30 38.10 77.20 37.73Q79.10 37.35 81.10 37.35Q82.30 37.35 83.33 37.45Q84.35 37.55 85.35 37.80L87.95 39.65L87.95 41.95Q86.65 41.25 85.17 40.98Q83.70 40.70 81.80 40.70Q78.30 40.70 76.47 41.73Q74.65 42.75 74.65 45.55Q74.65 47.85 76 48.98Q77.35 50.10 80.35 50.10Q83.45 50.10 85.28 49.10Q87.10 48.10 88.10 46.70L89.10 48.95L84.30 53Q83.30 53.25 82.15 53.42Q81 53.60 79.80 53.60ZM130.80 53L131.30 49L131.30 36.45Q131.30 33.55 129.70 32.13Q128.10 30.70 125.50 30.70Q123.20 30.70 121.58 31.57Q119.95 32.45 118.90 33.55Q117.85 34.65 117.35 35.30L117.35 31.65L122.55 27.40Q123.65 27.10 124.63 27Q125.60 26.90 126.40 26.90Q129.75 26.90 131.75 28.02Q133.75 29.15 134.63 31Q135.50 32.85 135.50 35.05L135.50 49L136 53L130.80 53M98.80 53L99.30 49L99.30 31.50L98.80 27.50L102.55 27.50L103.50 32.90L103.50 49L104 53L98.80 53M114.80 53L115.30 49L115.30 36.45Q115.30 33.55 113.75 32.13Q112.20 30.70 109.60 30.70Q107.35 30.70 105.67 31.55Q104 32.40 102.95 33.45Q101.90 34.50 101.40 35.10L101.40 31.65L106.60 27.40Q107.95 27.10 109.03 27Q110.10 26.90 110.85 26.90Q114 26.90 115.90 28.02Q117.80 29.15 118.65 31Q119.50 32.85 119.50 35.05L119.50 49L120 53L114.80 53ZM142 40.20Q142 35.25 143.63 32.33Q145.25 29.40 147.90 28.15Q150.55 26.90 153.55 26.90Q157 26.90 159.33 28.27Q161.65 29.65 162.83 32.17Q164 34.70 164 38.20Q164 39.20 163.90 40.05Q163.80 40.90 163.65 41.65L144.20 41.65L144.20 40.75L148.70 38.25L159.75 38.25Q159.75 36 159.28 34.25Q158.80 32.50 157.45 31.50Q156.10 30.50 153.50 30.50Q150.80 30.50 149.23 31.67Q147.65 32.85 146.98 34.95Q146.30 37.05 146.30 39.85Q146.30 43.20 147.05 45.25Q147.80 47.30 149.05 48.30Q150.30 49.30 151.80 49.65Q153.30 50 154.80 50Q157.15 50 158.88 49.52Q160.60 49.05 161.95 48.25L162.75 48.75L162.75 52.35Q161.20 52.90 159.33 53.25Q157.45 53.60 155.25 53.60Q152.85 53.60 150.48 53.02Q148.10 52.45 146.20 51Q144.30 49.55 143.15 46.92Q142 44.30 142 40.20ZM172.75 53.60Q171.40 53.60 170.50 52.80Q169.60 52 169.60 50.45Q169.60 48.95 170.50 48.13Q171.40 47.30 172.75 47.30Q174.05 47.30 174.98 48.13Q175.90 48.95 175.90 50.45Q175.90 52 174.98 52.80Q174.05 53.60 172.75 53.60ZM193.10 53.60Q189.90 53.60 187.35 52.05Q184.80 50.50 183.33 47.50Q181.85 44.50 181.85 40.25Q181.85 35.75 183.40 32.77Q184.95 29.80 187.48 28.35Q190.00 26.90 192.90 26.90Q194.35 26.90 195.50 27.17Q196.65 27.45 197.45 27.75L202.35 31.10L202.35 34.10Q201.45 33.05 200.28 32.25Q199.10 31.45 197.60 30.97Q196.10 30.50 194.10 30.50Q191.30 30.50 189.55 31.55Q187.80 32.60 186.98 34.77Q186.15 36.95 186.15 40.25Q186.15 45.10 188.03 47.55Q189.90 50 194.20 50Q196.25 50 197.60 49.50Q198.95 49 199.83 48.23Q200.70 47.45 201.20 46.55L201.60 49.55L197.30 53Q196.35 53.25 195.30 53.42Q194.25 53.60 193.10 53.60M201.30 53L200.55 50.40L200.55 20.60L200.05 16.60L205.25 16.60L204.75 20.60L204.75 49L205.25 53L201.30 53ZM212.35 53L212.85 49L212.85 31.50L212.35 27.50L215.70 27.50L216.50 30.45L217.05 30.45L217.05 49L217.55 53L212.35 53M216.00 36.55L216.00 31.30L220.40 27.55Q222.20 26.90 224.10 26.90Q224.95 26.90 225.85 27.02Q226.75 27.15 227.70 27.55L227.70 30.90L226.90 31.40Q226.05 31.10 225.28 31Q224.50 30.90 223.85 30.90Q220.90 30.90 219.05 32.42Q217.20 33.95 216.00 36.55ZM243.95 53.60Q240.95 53.60 238.20 52.30Q235.45 51 233.73 48.05Q232.00 45.10 232.00 40.25Q232.00 36.55 233.00 34Q234.00 31.45 235.70 29.88Q237.40 28.30 239.55 27.60Q241.70 26.90 243.95 26.90Q246.20 26.90 248.35 27.60Q250.50 28.30 252.20 29.88Q253.90 31.45 254.90 34Q255.90 36.55 255.90 40.25Q255.90 45.10 254.18 48.05Q252.45 51 249.73 52.30Q247.00 53.60 243.95 53.60M243.95 50Q247.50 50 249.55 47.80Q251.60 45.60 251.60 40.15Q251.60 36.50 250.68 34.40Q249.75 32.30 248.05 31.40Q246.35 30.50 243.95 30.50Q241.55 30.50 239.85 31.40Q238.15 32.30 237.23 34.40Q236.30 36.50 236.30 40.15Q236.30 45.60 238.35 47.80Q240.40 50 243.95 50ZM294.40 53L294.90 49L294.90 36.45Q294.90 33.55 293.30 32.13Q291.70 30.70 289.10 30.70Q286.80 30.70 285.18 31.57Q283.55 32.45 282.50 33.55Q281.45 34.65 280.95 35.30L280.95 31.65L286.15 27.40Q287.25 27.10 288.23 27Q289.20 26.90 290 26.90Q293.35 26.90 295.35 28.02Q297.35 29.15 298.23 31Q299.10 32.85 299.10 35.05L299.10 49L299.60 53L294.40 53M262.40 53L262.90 49L262.90 31.50L262.40 27.50L266.15 27.50L267.10 32.90L267.10 49L267.60 53L262.40 53M278.40 53L278.90 49L278.90 36.45Q278.90 33.55 277.35 32.13Q275.80 30.70 273.20 30.70Q270.95 30.70 269.28 31.55Q267.60 32.40 266.55 33.45Q265.50 34.50 265 35.10L265 31.65L270.20 27.40Q271.55 27.10 272.63 27Q273.70 26.90 274.45 26.90Q277.60 26.90 279.50 28.02Q281.40 29.15 282.25 31Q283.10 32.85 283.10 35.05L283.10 49L283.60 53L278.40 53ZM317.55 53.60Q314.55 53.60 311.80 52.30Q309.05 51 307.33 48.05Q305.60 45.10 305.60 40.25Q305.60 36.55 306.60 34Q307.60 31.45 309.30 29.88Q311.00 28.30 313.15 27.60Q315.30 26.90 317.55 26.90Q319.80 26.90 321.95 27.60Q324.10 28.30 325.80 29.88Q327.50 31.45 328.50 34Q329.50 36.55 329.50 40.25Q329.50 45.10 327.78 48.05Q326.05 51 323.33 52.30Q320.60 53.60 317.55 53.60M317.55 50Q321.10 50 323.15 47.80Q325.20 45.60 325.20 40.15Q325.20 36.50 324.28 34.40Q323.35 32.30 321.65 31.40Q319.95 30.50 317.55 30.50Q315.15 30.50 313.45 31.40Q311.75 32.30 310.83 34.40Q309.90 36.50 309.90 40.15Q309.90 45.60 311.95 47.80Q314.00 50 317.55 50Z"/>
</svg>